<?xml version="1.0" standalone="no"?>
<!DOCTYPE svg PUBLIC "-//W3C//DTD SVG 20010904//EN"
 "http://www.w3.org/TR/2001/REC-SVG-20010904/DTD/svg10.dtd">
<svg version="1.0" xmlns="http://www.w3.org/2000/svg"
 width="300.000000pt" height="235.000000pt" viewBox="0 0 300.000000 235.000000"
 preserveAspectRatio="xMidYMid meet">
<metadata>
Created by potrace 1.10, written by Peter Selinger 2001-2011
</metadata>
<g transform="translate(0.000000,235.000000) scale(0.100000,-0.100000)"
fill="#000000" stroke="none">
<path d="M535 1390 c-108 -25 -171 -122 -145 -222 22 -82 86 -128 179 -128 83
0 105 10 119 56 13 42 6 60 -12 30 -29 -50 -54 -66 -104 -66 -98 0 -159 95
-131 206 16 64 65 104 127 104 53 0 92 -21 92 -51 0 -11 7 -19 16 -19 11 0 14
5 10 16 -3 9 -6 24 -6 34 0 11 -8 23 -17 28 -27 14 -95 20 -128 12z"/>
<path d="M754 1386 c-9 -24 4 -48 23 -44 12 2 18 12 18 28 0 29 -32 41 -41 16z"/>
<path d="M2336 1384 c-4 -10 -1 -24 7 -31 19 -19 49 -5 45 21 -4 27 -43 34
-52 10z"/>
<path d="M1380 1382 c0 -6 12 -13 26 -16 l26 -7 -7 -137 c-7 -135 -14 -162
-41 -162 -8 0 -14 -4 -14 -10 0 -6 28 -10 65 -10 37 0 65 4 65 10 0 6 -8 10
-19 10 -32 0 -37 21 -31 144 l5 118 56 -133 c31 -73 61 -135 66 -136 9 -3 49
76 103 205 15 34 29 65 33 68 7 7 7 -223 0 -248 -2 -10 -13 -18 -24 -18 -10 0
-19 -4 -19 -10 0 -6 30 -10 70 -10 72 0 87 8 48 25 -22 10 -23 14 -23 155 0
143 0 145 23 148 40 6 23 22 -24 22 l-45 0 -53 -112 c-29 -62 -56 -123 -60
-135 -10 -31 -23 -29 -31 5 -4 15 -30 74 -58 132 l-52 105 -42 3 c-24 2 -43
-1 -43 -6z"/>
<path d="M2455 1331 c-38 -10 -90 -26 -115 -35 -86 -33 -121 -40 -141 -28 -32
20 -69 14 -100 -17 -31 -31 -36 -59 -18 -93 9 -17 6 -25 -22 -54 -18 -19 -38
-33 -44 -31 -5 2 -12 44 -15 92 -5 83 -7 90 -31 104 -24 13 -30 12 -75 -10
-48 -23 -64 -51 -34 -57 8 -1 20 8 25 20 7 17 18 23 40 23 26 0 30 -4 33 -31
3 -28 -1 -32 -37 -44 -22 -7 -50 -22 -61 -32 -54 -51 15 -128 76 -84 16 13 21
13 35 0 25 -23 64 -7 108 42 68 78 168 147 267 184 39 15 28 2 -18 -21 -84
-42 -243 -188 -224 -206 3 -3 -6 -15 -20 -25 -39 -31 -30 -77 19 -102 48 -23
97 -15 137 22 69 63 42 132 -51 132 -45 0 -50 2 -39 15 7 9 28 22 46 31 18 9
36 24 39 35 7 20 76 79 94 79 7 0 11 -31 11 -90 0 -83 -1 -90 -20 -90 -11 0
-20 -4 -20 -10 0 -6 27 -10 60 -10 58 0 80 12 40 23 -18 5 -20 14 -20 106 l0
100 32 17 c17 9 72 27 122 39 88 23 89 23 41 23 -27 1 -81 -7 -120 -17z m-267
-83 c18 -18 15 -23 -27 -51 -40 -26 -51 -26 -51 2 0 45 51 76 78 49z m-240
-169 c-24 -16 -56 -10 -63 11 -8 25 -1 37 39 61 l31 19 3 -42 c2 -26 -1 -44
-10 -49z m273 -39 c12 -7 19 -21 19 -40 0 -66 -107 -83 -140 -21 -16 30 22 71
66 71 20 0 44 -5 55 -10z"/>
<path d="M753 1266 c-38 -12 -42 -21 -13 -29 18 -5 20 -14 20 -87 0 -73 -2
-82 -20 -87 -40 -11 -18 -23 40 -23 33 0 60 4 60 10 0 6 -9 10 -20 10 -23 0
-22 -6 -20 117 1 50 -2 93 -7 95 -4 2 -23 -1 -40 -6z"/>
<path d="M885 1264 c-38 -11 -39 -12 -16 -21 23 -9 24 -14 23 -89 -1 -43 -1
-82 -2 -86 0 -5 -9 -8 -20 -8 -11 0 -20 -4 -20 -10 0 -6 27 -10 60 -10 58 0
80 12 40 23 -18 5 -20 14 -20 80 0 79 6 91 51 102 44 11 59 -15 59 -102 0 -66
-2 -75 -20 -80 -39 -10 -19 -23 35 -23 53 0 72 11 40 24 -12 4 -15 24 -15 86
0 73 -3 83 -25 105 -29 30 -40 31 -87 5 -34 -18 -37 -18 -40 -2 -3 16 -7 17
-43 6z"/>
<path d="M1191 1254 c-35 -29 -56 -91 -46 -135 9 -38 59 -79 97 -79 33 0 92
36 82 51 -3 5 -15 3 -27 -6 -12 -8 -30 -15 -40 -15 -27 0 -77 54 -77 84 0 24
2 25 73 28 70 3 72 4 69 28 -3 31 -45 70 -77 70 -13 0 -37 -12 -54 -26z m70
-4 c10 -6 19 -19 19 -29 0 -15 -9 -20 -46 -23 -25 -2 -48 0 -50 4 -5 8 40 58
51 58 4 0 15 -5 26 -10z"/>
<path d="M2525 1266 c-16 -7 -45 -30 -63 -51 l-33 -38 4 -146 3 -146 2 148 2
147 283 2 282 3 -257 2 c-161 2 -258 7 -258 13 0 6 9 19 21 31 21 21 40 22 97
4 32 -11 29 23 -4 35 -32 13 -42 12 -79 -4z"/>
<path d="M2546 1074 c-19 -18 -21 -55 -4 -72 7 -7 26 -11 43 -11 l30 1 -30 7
c-25 5 -31 12 -33 38 -2 24 1 33 17 38 12 3 25 3 31 0 5 -3 10 -1 10 4 0 17
-47 13 -64 -5z"/>
<path d="M2810 1040 c0 -27 4 -50 8 -50 4 0 7 17 5 38 l-3 37 17 -37 c8 -21
19 -38 24 -38 4 0 14 17 21 37 l13 37 6 -40 c6 -38 6 -37 8 14 1 61 -11 67
-32 15 l-15 -38 -18 38 c-10 20 -21 37 -26 37 -4 0 -8 -22 -8 -50z"/>
<path d="M2620 1025 c0 -19 5 -35 10 -35 6 0 10 16 10 35 0 19 -4 35 -10 35
-5 0 -10 -16 -10 -35z"/>
<path d="M2661 1021 c1 -35 2 -35 8 -7 9 41 31 46 31 7 0 -17 5 -31 11 -31 6
0 9 14 7 33 -3 27 -7 32 -30 33 -26 1 -28 -2 -27 -35z"/>
<path d="M2740 1045 c-20 -24 -8 -50 25 -52 20 -1 23 0 8 4 -31 6 -29 23 2 23
23 0 24 2 15 20 -13 24 -33 26 -50 5z"/>
<path d="M2943 1046 c3 -8 2 -18 -3 -21 -22 -14 -9 -35 21 -35 28 0 30 2 27
33 -2 25 -8 33 -27 35 -18 3 -22 0 -18 -12z"/>
</g>
</svg>
